{
    "asset" : {
        "generator" : "Khronos glTF Blender I/O v1.5.17",
        "version" : "2.0"
    },
    "scene" : 0,
    "scenes" : [
        {
            "name" : "Scene",
            "nodes" : [
                0,
                1,
                2,
                3
            ]
        }
    ],
    "nodes" : [
        {
            "name" : "Light",
            "rotation" : [
                0.16907575726509094,
                0.7558803558349609,
                -0.27217137813568115,
                0.570947527885437
            ],
            "translation" : [
                4.076245307922363,
                5.903861999511719,
                -1.0054539442062378
            ]
        },
        {
            "name" : "Camera",
            "rotation" : [
                0.483536034822464,
                0.33687159419059753,
                -0.20870360732078552,
                0.7804827094078064
            ],
            "translation" : [
                7.358891487121582,
                4.958309173583984,
                6.925790786743164
            ]
        },
        {
            "mesh" : 0,
            "name" : "\u0426\u0438\u043b\u0438\u043d\u0434\u0440",
            "scale" : [
                0.5,
                6,
                0.5
            ],
            "translation" : [
                0,
                6,
                0
            ]
        },
        {
            "mesh" : 1,
            "name" : "\u041f\u043b\u043e\u0441\u043a\u043e\u0441\u0442\u044c",
            "scale" : [
                4,
                1,
                1.5
            ],
            "translation" : [
                4,
                10.699999809265137,
                0
            ]
        }
    ],
    "meshes" : [
        {
            "name" : "\u0426\u0438\u043b\u0438\u043d\u0434\u0440",
            "primitives" : [
                {
                    "attributes" : {
                        "POSITION" : 0,
                        "NORMAL" : 1,
                        "TEXCOORD_0" : 2,
                        "COLOR_0" : 3
                    },
                    "indices" : 4
                }
            ]
        },
        {
            "name" : "\u041f\u043b\u043e\u0441\u043a\u043e\u0441\u0442\u044c",
            "primitives" : [
                {
                    "attributes" : {
                        "POSITION" : 5,
                        "NORMAL" : 6,
                        "TEXCOORD_0" : 7
                    },
                    "indices" : 8
                }
            ]
        }
    ],
    "accessors" : [
        {
            "bufferView" : 0,
            "componentType" : 5126,
            "count" : 955,
            "max" : [
                1.9989060163497925,
                0.8173575401306152,
                1.9381036758422852
            ],
            "min" : [
                -1.9378432035446167,
                -1.0474978685379028,
                -2.0495047569274902
            ],
            "type" : "VEC3"
        },
        {
            "bufferView" : 1,
            "componentType" : 5126,
            "count" : 955,
            "type" : "VEC3"
        },
        {
            "bufferView" : 2,
            "componentType" : 5126,
            "count" : 955,
            "type" : "VEC2"
        },
        {
            "bufferView" : 3,
            "componentType" : 5123,
            "count" : 955,
            "normalized" : true,
            "type" : "VEC4"
        },
        {
            "bufferView" : 4,
            "componentType" : 5123,
            "count" : 5172,
            "type" : "SCALAR"
        },
        {
            "bufferView" : 5,
            "componentType" : 5126,
            "count" : 39936,
            "max" : [
                0.7885867357254028,
                0.14307664334774017,
                4.768413543701172
            ],
            "min" : [
                -2.788309097290039,
                -0.22580407559871674,
                -4.769209384918213
            ],
            "type" : "VEC3"
        },
        {
            "bufferView" : 6,
            "componentType" : 5126,
            "count" : 39936,
            "type" : "VEC3"
        },
        {
            "bufferView" : 7,
            "componentType" : 5126,
            "count" : 39936,
            "type" : "VEC2"
        },
        {
            "bufferView" : 8,
            "componentType" : 5123,
            "count" : 44160,
            "type" : "SCALAR"
        }
    ],
    "bufferViews" : [
        {
            "buffer" : 0,
            "byteLength" : 11460,
            "byteOffset" : 0
        },
        {
            "buffer" : 0,
            "byteLength" : 11460,
            "byteOffset" : 11460
        },
        {
            "buffer" : 0,
            "byteLength" : 7640,
            "byteOffset" : 22920
        },
        {
            "buffer" : 0,
            "byteLength" : 7640,
            "byteOffset" : 30560
        },
        {
            "buffer" : 0,
            "byteLength" : 10344,
            "byteOffset" : 38200
        },
        {
            "buffer" : 0,
            "byteLength" : 479232,
            "byteOffset" : 48544
        },
        {
            "buffer" : 0,
            "byteLength" : 479232,
            "byteOffset" : 527776
        },
        {
            "buffer" : 0,
            "byteLength" : 319488,
            "byteOffset" : 1007008
        },
        {
            "buffer" : 0,
            "byteLength" : 88320,
            "byteOffset" : 1326496
        }
    ],
    "buffers" : [
        {
            "byteLength" : 1414816,
            "uri" : "data:application/octet-stream;base64,"
        }
    ]
}
