{
    "asset" : {
        "generator" : "Khronos glTF Blender I/O v1.5.17",
        "version" : "2.0"
    },
    "scene" : 0,
    "scenes" : [
        {
            "name" : "Scene",
            "nodes" : [
                0,
                1,
                2,
                3
            ]
        }
    ],
    "nodes" : [
        {
            "mesh" : 0,
            "name" : "\u0426\u0438\u043b\u0438\u043d\u0434\u0440",
            "scale" : [
                0.10000000149011612,
                2,
                0.10000000149011612
            ],
            "translation" : [
                0,
                2,
                0
            ]
        },
        {
            "mesh" : 1,
            "name" : "\u041e\u043a\u0440\u0443\u0436\u043d\u043e\u0441\u0442\u044c",
            "rotation" : [
                -0.3826834559440613,
                0,
                0,
                0.9238795042037964
            ],
            "scale" : [
                2,
                2,
                2
            ],
            "translation" : [
                0,
                4,
                0
            ]
        },
        {
            "mesh" : 2,
            "name" : "\u041e\u043a\u0440\u0443\u0436\u043d\u043e\u0441\u0442\u044c.001",
            "rotation" : [
                -0.27059805393218994,
                0.6532815098762512,
                0.27059805393218994,
                0.6532814502716064
            ],
            "scale" : [
                2,
                2,
                2
            ],
            "translation" : [
                0,
                4,
                0
            ]
        },
        {
            "mesh" : 3,
            "name" : "\u0421\u0444\u0435\u0440\u0430",
            "scale" : [
                0.30000001192092896,
                0.15000000596046448,
                0.30000001192092896
            ],
            "translation" : [
                0,
                4,
                0
            ]
        }
    ],
    "meshes" : [
        {
            "name" : "\u0426\u0438\u043b\u0438\u043d\u0434\u0440",
            "primitives" : [
                {
                    "attributes" : {
                        "POSITION" : 0,
                        "NORMAL" : 1,
                        "TEXCOORD_0" : 2
                    },
                    "indices" : 3
                }
            ]
        },
        {
            "name" : "\u041e\u043a\u0440\u0443\u0436\u043d\u043e\u0441\u0442\u044c.006",
            "primitives" : [
                {
                    "attributes" : {
                        "POSITION" : 4,
                        "NORMAL" : 5,
                        "TEXCOORD_0" : 6
                    },
                    "indices" : 7
                }
            ]
        },
        {
            "name" : "\u041e\u043a\u0440\u0443\u0436\u043d\u043e\u0441\u0442\u044c.007",
            "primitives" : [
                {
                    "attributes" : {
                        "POSITION" : 8,
                        "NORMAL" : 9,
                        "TEXCOORD_0" : 10
                    },
                    "indices" : 7
                }
            ]
        },
        {
            "name" : "\u0421\u0444\u0435\u0440\u0430",
            "primitives" : [
                {
                    "attributes" : {
                        "POSITION" : 11,
                        "NORMAL" : 12,
                        "TEXCOORD_0" : 13
                    },
                    "indices" : 14
                }
            ]
        }
    ],
    "accessors" : [
        {
            "bufferView" : 0,
            "componentType" : 5126,
            "count" : 229,
            "max" : [
                1.7666410207748413,
                1,
                1.3953969478607178
            ],
            "min" : [
                -1.7666410207748413,
                -1,
                -1.3953970670700073
            ],
            "type" : "VEC3"
        },
        {
            "bufferView" : 1,
            "componentType" : 5126,
            "count" : 229,
            "type" : "VEC3"
        },
        {
            "bufferView" : 2,
            "componentType" : 5126,
            "count" : 229,
            "type" : "VEC2"
        },
        {
            "bufferView" : 3,
            "componentType" : 5123,
            "count" : 948,
            "type" : "SCALAR"
        },
        {
            "bufferView" : 4,
            "componentType" : 5126,
            "count" : 81,
            "max" : [
                0.9304103851318359,
                0.5549373626708984,
                0.8617992401123047
            ],
            "min" : [
                -0.9463930130004883,
                -0.5588207244873047,
                -0.8523550033569336
            ],
            "type" : "VEC3"
        },
        {
            "bufferView" : 5,
            "componentType" : 5126,
            "count" : 81,
            "type" : "VEC3"
        },
        {
            "bufferView" : 6,
            "componentType" : 5126,
            "count" : 81,
            "type" : "VEC2"
        },
        {
            "bufferView" : 7,
            "componentType" : 5123,
            "count" : 384,
            "type" : "SCALAR"
        },
        {
            "bufferView" : 8,
            "componentType" : 5126,
            "count" : 81,
            "max" : [
                0.9304103851318359,
                0.5549373626708984,
                0.8617992401123047
            ],
            "min" : [
                -0.9463930130004883,
                -0.5588207244873047,
                -0.8523550033569336
            ],
            "type" : "VEC3"
        },
        {
            "bufferView" : 9,
            "componentType" : 5126,
            "count" : 81,
            "type" : "VEC3"
        },
        {
            "bufferView" : 10,
            "componentType" : 5126,
            "count" : 81,
            "type" : "VEC2"
        },
        {
            "bufferView" : 11,
            "componentType" : 5126,
            "count" : 559,
            "max" : [
                1.000000238418579,
                1,
                1.0000003576278687
            ],
            "min" : [
                -0.9999998211860657,
                -1,
                -1
            ],
            "type" : "VEC3"
        },
        {
            "bufferView" : 12,
            "componentType" : 5126,
            "count" : 559,
            "type" : "VEC3"
        },
        {
            "bufferView" : 13,
            "componentType" : 5126,
            "count" : 559,
            "type" : "VEC2"
        },
        {
            "bufferView" : 14,
            "componentType" : 5123,
            "count" : 2880,
            "type" : "SCALAR"
        }
    ],
    "bufferViews" : [
        {
            "buffer" : 0,
            "byteLength" : 2748,
            "byteOffset" : 0
        },
        {
            "buffer" : 0,
            "byteLength" : 2748,
            "byteOffset" : 2748
        },
        {
            "buffer" : 0,
            "byteLength" : 1832,
            "byteOffset" : 5496
        },
        {
            "buffer" : 0,
            "byteLength" : 1896,
            "byteOffset" : 7328
        },
        {
            "buffer" : 0,
            "byteLength" : 972,
            "byteOffset" : 9224
        },
        {
            "buffer" : 0,
            "byteLength" : 972,
            "byteOffset" : 10196
        },
        {
            "buffer" : 0,
            "byteLength" : 648,
            "byteOffset" : 11168
        },
        {
            "buffer" : 0,
            "byteLength" : 768,
            "byteOffset" : 11816
        },
        {
            "buffer" : 0,
            "byteLength" : 972,
            "byteOffset" : 12584
        },
        {
            "buffer" : 0,
            "byteLength" : 972,
            "byteOffset" : 13556
        },
        {
            "buffer" : 0,
            "byteLength" : 648,
            "byteOffset" : 14528
        },
        {
            "buffer" : 0,
            "byteLength" : 6708,
            "byteOffset" : 15176
        },
        {
            "buffer" : 0,
            "byteLength" : 6708,
            "byteOffset" : 21884
        },
        {
            "buffer" : 0,
            "byteLength" : 4472,
            "byteOffset" : 28592
        },
        {
            "buffer" : 0,
            "byteLength" : 5760,
            "byteOffset" : 33064
        }
    ],
    "buffers" : [
        {
            "byteLength" : 38824,
            "uri" : "data:application/octet-stream;base64,"
        }
    ]
}
