{
    "asset" : {
        "generator" : "Khronos glTF Blender I/O v1.5.17",
        "version" : "2.0"
    },
    "scene" : 0,
    "scenes" : [
        {
            "name" : "Scene",
            "nodes" : [
                0,
                1,
                2,
                3,
                4,
                5,
                6,
                7
            ]
        }
    ],
    "nodes" : [
        {
            "name" : "Camera",
            "rotation" : [
                0.483536034822464,
                0.33687159419059753,
                -0.20870360732078552,
                0.7804827094078064
            ],
            "translation" : [
                7.358891487121582,
                4.958309173583984,
                6.925790786743164
            ]
        },
        {
            "mesh" : 0,
            "name" : "\u0426\u0438\u043b\u0438\u043d\u0434\u0440",
            "rotation" : [
                0.5648625493049622,
                -0.09960050135850906,
                -0.14224424958229065,
                0.8067072629928589
            ],
            "scale" : [
                0.5,
                2,
                0.5
            ],
            "translation" : [
                -1.2999999523162842,
                0.550000011920929,
                -1
            ]
        },
        {
            "mesh" : 1,
            "name" : "\u0426\u0438\u043b\u0438\u043d\u0434\u0440.001",
            "rotation" : [
                0,
                0,
                -0.7071068286895752,
                0.7071068286895752
            ],
            "scale" : [
                0.5,
                2,
                0.5
            ]
        },
        {
            "mesh" : 2,
            "name" : "\u0426\u0438\u043b\u0438\u043d\u0434\u0440.002",
            "rotation" : [
                0.5648625493049622,
                0.09960050135850906,
                0.14224424958229065,
                0.8067072629928589
            ],
            "scale" : [
                0.5,
                2,
                0.5
            ],
            "translation" : [
                1.2999999523162842,
                0.6000000238418579,
                -1
            ]
        },
        {
            "mesh" : 3,
            "name" : "\u0426\u0438\u043b\u0438\u043d\u0434\u0440.003",
            "rotation" : [
                -0.5735764503479004,
                0,
                0,
                0.8191520571708679
            ],
            "scale" : [
                0.5,
                2,
                0.5
            ],
            "translation" : [
                0,
                0.6000000238418579,
                1
            ]
        },
        {
            "mesh" : 4,
            "name" : "\u041a\u043e\u043d\u0443\u0441",
            "scale" : [
                2,
                2,
                2
            ],
            "translation" : [
                0,
                1.5,
                0
            ]
        },
        {
            "mesh" : 5,
            "name" : "\u041f\u043b\u043e\u0441\u043a\u043e\u0441\u0442\u044c",
            "scale" : [
                3,
                3,
                3
            ],
            "translation" : [
                0,
                -0.5,
                0
            ]
        },
        {
            "mesh" : 6,
            "name" : "\u041f\u043b\u043e\u0441\u043a\u043e\u0441\u0442\u044c.001",
            "scale" : [
                4,
                0.5,
                4
            ],
            "translation" : [
                0,
                -0.5099999904632568,
                0
            ]
        }
    ],
    "meshes" : [
        {
            "name" : "\u0426\u0438\u043b\u0438\u043d\u0434\u0440.004",
            "primitives" : [
                {
                    "attributes" : {
                        "POSITION" : 0,
                        "NORMAL" : 1,
                        "TEXCOORD_0" : 2
                    },
                    "indices" : 3
                }
            ]
        },
        {
            "name" : "\u0426\u0438\u043b\u0438\u043d\u0434\u0440.005",
            "primitives" : [
                {
                    "attributes" : {
                        "POSITION" : 4,
                        "NORMAL" : 5,
                        "TEXCOORD_0" : 6
                    },
                    "indices" : 7
                }
            ]
        },
        {
            "name" : "\u0426\u0438\u043b\u0438\u043d\u0434\u0440.006",
            "primitives" : [
                {
                    "attributes" : {
                        "POSITION" : 8,
                        "NORMAL" : 9,
                        "TEXCOORD_0" : 10
                    },
                    "indices" : 11
                }
            ]
        },
        {
            "name" : "\u0426\u0438\u043b\u0438\u043d\u0434\u0440.007",
            "primitives" : [
                {
                    "attributes" : {
                        "POSITION" : 12,
                        "NORMAL" : 13,
                        "TEXCOORD_0" : 14
                    },
                    "indices" : 11
                }
            ]
        },
        {
            "name" : "\u041a\u043e\u043d\u0443\u0441",
            "primitives" : [
                {
                    "attributes" : {
                        "POSITION" : 15,
                        "NORMAL" : 16,
                        "TEXCOORD_0" : 17
                    },
                    "indices" : 18
                }
            ]
        },
        {
            "name" : "\u041f\u043b\u043e\u0441\u043a\u043e\u0441\u0442\u044c",
            "primitives" : [
                {
                    "attributes" : {
                        "POSITION" : 19,
                        "NORMAL" : 20,
                        "TEXCOORD_0" : 21
                    },
                    "indices" : 22
                }
            ]
        },
        {
            "name" : "\u041f\u043b\u043e\u0441\u043a\u043e\u0441\u0442\u044c.001",
            "primitives" : [
                {
                    "attributes" : {
                        "POSITION" : 23,
                        "NORMAL" : 24,
                        "TEXCOORD_0" : 25
                    },
                    "indices" : 26
                }
            ]
        }
    ],
    "accessors" : [
        {
            "bufferView" : 0,
            "componentType" : 5126,
            "count" : 394,
            "max" : [
                1,
                1,
                1
            ],
            "min" : [
                -1,
                -1,
                -1
            ],
            "type" : "VEC3"
        },
        {
            "bufferView" : 1,
            "componentType" : 5126,
            "count" : 394,
            "type" : "VEC3"
        },
        {
            "bufferView" : 2,
            "componentType" : 5126,
            "count" : 394,
            "type" : "VEC2"
        },
        {
            "bufferView" : 3,
            "componentType" : 5123,
            "count" : 1908,
            "type" : "SCALAR"
        },
        {
            "bufferView" : 4,
            "componentType" : 5126,
            "count" : 460,
            "max" : [
                1,
                1.0002955198287964,
                1
            ],
            "min" : [
                -1,
                -1,
                -1
            ],
            "type" : "VEC3"
        },
        {
            "bufferView" : 5,
            "componentType" : 5126,
            "count" : 460,
            "type" : "VEC3"
        },
        {
            "bufferView" : 6,
            "componentType" : 5126,
            "count" : 460,
            "type" : "VEC2"
        },
        {
            "bufferView" : 7,
            "componentType" : 5123,
            "count" : 2292,
            "type" : "SCALAR"
        },
        {
            "bufferView" : 8,
            "componentType" : 5126,
            "count" : 130,
            "max" : [
                1,
                1,
                1
            ],
            "min" : [
                -1,
                -1,
                -1
            ],
            "type" : "VEC3"
        },
        {
            "bufferView" : 9,
            "componentType" : 5126,
            "count" : 130,
            "type" : "VEC3"
        },
        {
            "bufferView" : 10,
            "componentType" : 5126,
            "count" : 130,
            "type" : "VEC2"
        },
        {
            "bufferView" : 11,
            "componentType" : 5123,
            "count" : 372,
            "type" : "SCALAR"
        },
        {
            "bufferView" : 12,
            "componentType" : 5126,
            "count" : 130,
            "max" : [
                1,
                1,
                1
            ],
            "min" : [
                -1,
                -1,
                -1
            ],
            "type" : "VEC3"
        },
        {
            "bufferView" : 13,
            "componentType" : 5126,
            "count" : 130,
            "type" : "VEC3"
        },
        {
            "bufferView" : 14,
            "componentType" : 5126,
            "count" : 130,
            "type" : "VEC2"
        },
        {
            "bufferView" : 15,
            "componentType" : 5126,
            "count" : 65,
            "max" : [
                1,
                1,
                1
            ],
            "min" : [
                -1,
                -1,
                -1
            ],
            "type" : "VEC3"
        },
        {
            "bufferView" : 16,
            "componentType" : 5126,
            "count" : 65,
            "type" : "VEC3"
        },
        {
            "bufferView" : 17,
            "componentType" : 5126,
            "count" : 65,
            "type" : "VEC2"
        },
        {
            "bufferView" : 18,
            "componentType" : 5123,
            "count" : 186,
            "type" : "SCALAR"
        },
        {
            "bufferView" : 19,
            "componentType" : 5126,
            "count" : 4,
            "max" : [
                1,
                0,
                1
            ],
            "min" : [
                -1,
                0,
                -1
            ],
            "type" : "VEC3"
        },
        {
            "bufferView" : 20,
            "componentType" : 5126,
            "count" : 4,
            "type" : "VEC3"
        },
        {
            "bufferView" : 21,
            "componentType" : 5126,
            "count" : 4,
            "type" : "VEC2"
        },
        {
            "bufferView" : 22,
            "componentType" : 5123,
            "count" : 6,
            "type" : "SCALAR"
        },
        {
            "bufferView" : 23,
            "componentType" : 5126,
            "count" : 176,
            "max" : [
                1,
                2,
                1
            ],
            "min" : [
                -1,
                0,
                -1
            ],
            "type" : "VEC3"
        },
        {
            "bufferView" : 24,
            "componentType" : 5126,
            "count" : 176,
            "type" : "VEC3"
        },
        {
            "bufferView" : 25,
            "componentType" : 5126,
            "count" : 176,
            "type" : "VEC2"
        },
        {
            "bufferView" : 26,
            "componentType" : 5123,
            "count" : 480,
            "type" : "SCALAR"
        }
    ],
    "bufferViews" : [
        {
            "buffer" : 0,
            "byteLength" : 4728,
            "byteOffset" : 0
        },
        {
            "buffer" : 0,
            "byteLength" : 4728,
            "byteOffset" : 4728
        },
        {
            "buffer" : 0,
            "byteLength" : 3152,
            "byteOffset" : 9456
        },
        {
            "buffer" : 0,
            "byteLength" : 3816,
            "byteOffset" : 12608
        },
        {
            "buffer" : 0,
            "byteLength" : 5520,
            "byteOffset" : 16424
        },
        {
            "buffer" : 0,
            "byteLength" : 5520,
            "byteOffset" : 21944
        },
        {
            "buffer" : 0,
            "byteLength" : 3680,
            "byteOffset" : 27464
        },
        {
            "buffer" : 0,
            "byteLength" : 4584,
            "byteOffset" : 31144
        },
        {
            "buffer" : 0,
            "byteLength" : 1560,
            "byteOffset" : 35728
        },
        {
            "buffer" : 0,
            "byteLength" : 1560,
            "byteOffset" : 37288
        },
        {
            "buffer" : 0,
            "byteLength" : 1040,
            "byteOffset" : 38848
        },
        {
            "buffer" : 0,
            "byteLength" : 744,
            "byteOffset" : 39888
        },
        {
            "buffer" : 0,
            "byteLength" : 1560,
            "byteOffset" : 40632
        },
        {
            "buffer" : 0,
            "byteLength" : 1560,
            "byteOffset" : 42192
        },
        {
            "buffer" : 0,
            "byteLength" : 1040,
            "byteOffset" : 43752
        },
        {
            "buffer" : 0,
            "byteLength" : 780,
            "byteOffset" : 44792
        },
        {
            "buffer" : 0,
            "byteLength" : 780,
            "byteOffset" : 45572
        },
        {
            "buffer" : 0,
            "byteLength" : 520,
            "byteOffset" : 46352
        },
        {
            "buffer" : 0,
            "byteLength" : 372,
            "byteOffset" : 46872
        },
        {
            "buffer" : 0,
            "byteLength" : 48,
            "byteOffset" : 47244
        },
        {
            "buffer" : 0,
            "byteLength" : 48,
            "byteOffset" : 47292
        },
        {
            "buffer" : 0,
            "byteLength" : 32,
            "byteOffset" : 47340
        },
        {
            "buffer" : 0,
            "byteLength" : 12,
            "byteOffset" : 47372
        },
        {
            "buffer" : 0,
            "byteLength" : 2112,
            "byteOffset" : 47384
        },
        {
            "buffer" : 0,
            "byteLength" : 2112,
            "byteOffset" : 49496
        },
        {
            "buffer" : 0,
            "byteLength" : 1408,
            "byteOffset" : 51608
        },
        {
            "buffer" : 0,
            "byteLength" : 960,
            "byteOffset" : 53016
        }
    ],
    "buffers" : [
        {
            "byteLength" : 53976,
            "uri" : "data:application/octet-stream;base64,"
        }
    ]
}
