{
    "asset" : {
        "generator" : "Khronos glTF Blender I/O v1.5.17",
        "version" : "2.0"
    },
    "scene" : 0,
    "scenes" : [
        {
            "name" : "Scene",
            "nodes" : [
                0,
                1,
                2
            ]
        }
    ],
    "nodes" : [
        {
            "name" : "Light",
            "rotation" : [
                0.16907575726509094,
                0.7558803558349609,
                -0.27217137813568115,
                0.570947527885437
            ],
            "translation" : [
                4.076245307922363,
                5.903861999511719,
                -1.0054539442062378
            ]
        },
        {
            "name" : "Camera",
            "rotation" : [
                0.483536034822464,
                0.33687159419059753,
                -0.20870360732078552,
                0.7804827094078064
            ],
            "translation" : [
                7.358891487121582,
                4.958309173583984,
                6.925790786743164
            ]
        },
        {
            "mesh" : 0,
            "name" : "\u041e\u043a\u0440\u0443\u0436\u043d\u043e\u0441\u0442\u044c",
            "scale" : [
                1,
                0.20000000298023224,
                1
            ]
        }
    ],
    "meshes" : [
        {
            "name" : "\u041e\u043a\u0440\u0443\u0436\u043d\u043e\u0441\u0442\u044c",
            "primitives" : [
                {
                    "attributes" : {
                        "POSITION" : 0,
                        "NORMAL" : 1,
                        "TEXCOORD_0" : 2
                    },
                    "indices" : 3
                }
            ]
        }
    ],
    "accessors" : [
        {
            "bufferView" : 0,
            "componentType" : 5126,
            "count" : 104,
            "max" : [
                0.9999909996986389,
                1.239672064781189,
                1
            ],
            "min" : [
                -1,
                0,
                -1
            ],
            "type" : "VEC3"
        },
        {
            "bufferView" : 1,
            "componentType" : 5126,
            "count" : 104,
            "type" : "VEC3"
        },
        {
            "bufferView" : 2,
            "componentType" : 5126,
            "count" : 104,
            "type" : "VEC2"
        },
        {
            "bufferView" : 3,
            "componentType" : 5123,
            "count" : 522,
            "type" : "SCALAR"
        }
    ],
    "bufferViews" : [
        {
            "buffer" : 0,
            "byteLength" : 1248,
            "byteOffset" : 0
        },
        {
            "buffer" : 0,
            "byteLength" : 1248,
            "byteOffset" : 1248
        },
        {
            "buffer" : 0,
            "byteLength" : 832,
            "byteOffset" : 2496
        },
        {
            "buffer" : 0,
            "byteLength" : 1044,
            "byteOffset" : 3328
        }
    ],
    "buffers" : [
        {
            "byteLength" : 4372,
            "uri" : "data:application/octet-stream;base64,"
        }
    ]
}
