{
    "asset" : {
        "generator" : "Khronos glTF Blender I/O v1.5.17",
        "version" : "2.0"
    },
    "scene" : 0,
    "scenes" : [
        {
            "name" : "Scene",
            "nodes" : [
                0,
                1,
                2
            ]
        }
    ],
    "nodes" : [
        {
            "name" : "Camera",
            "rotation" : [
                0.483536034822464,
                0.33687159419059753,
                -0.20870360732078552,
                0.7804827094078064
            ],
            "translation" : [
                7.358891487121582,
                5.785383701324463,
                6.925790786743164
            ]
        },
        {
            "mesh" : 0,
            "name" : "\u0421\u0444\u0435\u0440\u0430",
            "translation" : [
                0,
                0.8270750641822815,
                0
            ]
        },
        {
            "mesh" : 1,
            "name" : "\u0426\u0438\u043b\u0438\u043d\u0434\u0440",
            "scale" : [
                0.5,
                0.05000000074505806,
                0.5
            ],
            "translation" : [
                0,
                1.6970750093460083,
                0
            ]
        }
    ],
    "meshes" : [
        {
            "name" : "\u0421\u0444\u0435\u0440\u0430",
            "primitives" : [
                {
                    "attributes" : {
                        "POSITION" : 0,
                        "NORMAL" : 1,
                        "TEXCOORD_0" : 2,
                        "COLOR_0" : 3
                    },
                    "indices" : 4
                }
            ]
        },
        {
            "name" : "\u0426\u0438\u043b\u0438\u043d\u0434\u0440.002",
            "primitives" : [
                {
                    "attributes" : {
                        "POSITION" : 5,
                        "NORMAL" : 6,
                        "TEXCOORD_0" : 7
                    },
                    "indices" : 8
                }
            ]
        }
    ],
    "accessors" : [
        {
            "bufferView" : 0,
            "componentType" : 5126,
            "count" : 4693,
            "max" : [
                1.0499881505966187,
                0.8438904285430908,
                1.0661696195602417
            ],
            "min" : [
                -1.0766675472259521,
                -0.9284112453460693,
                -1.0459766387939453
            ],
            "type" : "VEC3"
        },
        {
            "bufferView" : 1,
            "componentType" : 5126,
            "count" : 4693,
            "type" : "VEC3"
        },
        {
            "bufferView" : 2,
            "componentType" : 5126,
            "count" : 4693,
            "type" : "VEC2"
        },
        {
            "bufferView" : 3,
            "componentType" : 5123,
            "count" : 4693,
            "normalized" : true,
            "type" : "VEC4"
        },
        {
            "bufferView" : 4,
            "componentType" : 5123,
            "count" : 27648,
            "type" : "SCALAR"
        },
        {
            "bufferView" : 5,
            "componentType" : 5126,
            "count" : 130,
            "max" : [
                1,
                0.8651297688484192,
                1
            ],
            "min" : [
                -1,
                -1,
                -1
            ],
            "type" : "VEC3"
        },
        {
            "bufferView" : 6,
            "componentType" : 5126,
            "count" : 130,
            "type" : "VEC3"
        },
        {
            "bufferView" : 7,
            "componentType" : 5126,
            "count" : 130,
            "type" : "VEC2"
        },
        {
            "bufferView" : 8,
            "componentType" : 5123,
            "count" : 372,
            "type" : "SCALAR"
        }
    ],
    "bufferViews" : [
        {
            "buffer" : 0,
            "byteLength" : 56316,
            "byteOffset" : 0
        },
        {
            "buffer" : 0,
            "byteLength" : 56316,
            "byteOffset" : 56316
        },
        {
            "buffer" : 0,
            "byteLength" : 37544,
            "byteOffset" : 112632
        },
        {
            "buffer" : 0,
            "byteLength" : 37544,
            "byteOffset" : 150176
        },
        {
            "buffer" : 0,
            "byteLength" : 55296,
            "byteOffset" : 187720
        },
        {
            "buffer" : 0,
            "byteLength" : 1560,
            "byteOffset" : 243016
        },
        {
            "buffer" : 0,
            "byteLength" : 1560,
            "byteOffset" : 244576
        },
        {
            "buffer" : 0,
            "byteLength" : 1040,
            "byteOffset" : 246136
        },
        {
            "buffer" : 0,
            "byteLength" : 744,
            "byteOffset" : 247176
        }
    ],
    "buffers" : [
        {
            "byteLength" : 247920,
            "uri" : "data:application/octet-stream;base64,"
        }
    ]
}
